<svg width="100" height="100" viewBox="0 0 100 100" fill="none" xmlns="http://www.w3.org/2000/svg">
<g clip-path="url(#clip0_5_9)">
<rect width="100" height="100" fill="#3A6DC5"/>
<path d="M0 0H2C29.6142 0 52 22.3858 52 50V52H50C22.3858 52 0 29.6142 0 2V0Z" fill="white"/>
<path d="M0 100H2C29.6142 100 52 77.6142 52 50V48H50C22.3858 48 0 70.3858 0 98V100Z" fill="white"/>
<path d="M100 0H98C70.3858 0 48 22.3858 48 50V52H50C77.6142 52 100 29.6142 100 2V0Z" fill="white"/>
<path d="M100 100H98C70.3858 100 48 77.6142 48 50V48H50C77.6142 48 100 70.3858 100 98V100Z" fill="white"/>
</g>
<defs>
<clipPath id="clip0_5_9">
<rect width="100" height="100" fill="white"/>
</clipPath>
</defs>
</svg>
