<svg width="100" height="100" viewBox="0 0 100 100" fill="none" xmlns="http://www.w3.org/2000/svg">
<g clip-path="url(#clip0_5_102)">
<rect width="100" height="100" fill="#3A6DC5"/>
<path d="M150 0C150 27.6142 127.614 50 100 50C72.3858 50 50 27.6142 50 0C50 -27.6142 72.3858 -50 100 -50C127.614 -50 150 -27.6142 150 0Z" fill="white"/>
<path d="M150 100C150 127.614 127.614 150 100 150C72.3858 150 50 127.614 50 100C50 72.3858 72.3858 50 100 50C127.614 50 150 72.3858 150 100Z" fill="white"/>
<path d="M50 0C50 27.6142 27.6142 50 0 50C-27.6142 50 -50 27.6142 -50 0C-50 -27.6142 -27.6142 -50 0 -50C27.6142 -50 50 -27.6142 50 0Z" fill="white"/>
<path d="M50 100C50 127.614 27.6142 150 0 150C-27.6142 150 -50 127.614 -50 100C-50 72.3858 -27.6142 50 0 50C27.6142 50 50 72.3858 50 100Z" fill="white"/>
</g>
<defs>
<clipPath id="clip0_5_102">
<rect width="100" height="100" fill="white"/>
</clipPath>
</defs>
</svg>
