<svg width="100" height="100" viewBox="0 0 100 100" fill="none" xmlns="http://www.w3.org/2000/svg">
<g clip-path="url(#clip0_5_158)">
<rect width="100" height="100" fill="#F94141"/>
<path d="M0 0H25C38.8071 0 50 11.1929 50 25C50 38.8071 38.8071 50 25 50C11.1929 50 0 38.8071 0 25V0Z" fill="white"/>
<path d="M100 0V25C100 38.8071 88.8071 50 75 50C61.1929 50 50 38.8071 50 25C50 11.1929 61.1929 0 75 0H100Z" fill="white"/>
<path d="M0 100H25C38.8071 100 50 88.8071 50 75C50 61.1929 38.8071 50 25 50C11.1929 50 0 61.1929 0 75V100Z" fill="white"/>
<path d="M100 100V75C100 61.1929 88.8071 50 75 50C61.1929 50 50 61.1929 50 75C50 88.8071 61.1929 100 75 100H100Z" fill="white"/>
</g>
<defs>
<clipPath id="clip0_5_158">
<rect width="100" height="100" fill="white"/>
</clipPath>
</defs>
</svg>
